<svg width="135" height="131" viewBox="0 0 135 131" fill="none" xmlns="http://www.w3.org/2000/svg">
<path d="M91.2227 28.1572L21.7256 82.2802C21.0095 82.3603 19.9452 82.1802 18.5328 81.7399C16.7623 81.1796 15.0813 80.3491 13.4898 79.2484C8.95415 76.1265 6.20888 71.6437 5.254 65.8002C4.31902 60.1968 5.17443 54.1831 7.82023 47.7592C8.69554 45.6379 9.76977 43.4465 11.0429 41.1851L13.3705 37.2527C15.2603 33.8707 16.8219 30.5286 18.0553 27.2266C20.1043 21.7032 20.6613 17.6208 19.7263 14.9791L20.6812 15.0992C21.3974 15.2393 21.9743 15.4995 22.4119 15.8797C22.3523 15.2393 22.1832 14.4888 21.9047 13.6283C21.3278 11.8672 20.5022 10.3863 19.4279 9.1856L22.6507 8.73533C25.376 8.75534 28.1412 9.53582 30.9461 11.0768L30.7373 9.42575C30.6577 8.30507 30.7671 7.68469 31.0655 7.56461C31.523 7.3845 32.1795 7.82477 33.0349 8.88542C33.0548 8.00488 33.2438 7.00427 33.6019 5.88359C34.2982 3.68224 35.4719 2.02123 37.123 0.900543L38.7642 3.93239C40.296 6.11373 42.1659 7.62465 44.3741 8.46516C46.3037 9.22563 50.6802 9.80598 57.5036 10.2062C64.1082 10.6065 68.7632 11.427 71.4687 12.6677L74.3333 12.9079C76.6608 13.2081 78.8093 13.7584 80.7787 14.5589C87.1247 17.1405 90.606 21.6732 91.2227 28.1572Z" fill="#68AE28"/>
<path d="M7.31298 71.6838C2.8171 63.1586 3.89134 53.3626 10.5357 42.2958C7.17373 51.2413 8.30764 58.3957 13.9374 63.7589C16.3843 66.0804 19.4678 67.7814 23.1878 68.8621C26.8283 69.9027 30.6876 70.2429 34.7657 69.8827L20.8603 82.5204C18.8312 82.3403 16.5733 81.3497 14.0866 79.5486C11.2419 77.4473 8.98401 74.8257 7.31298 71.6838Z" fill="#56931F"/>
<path d="M118.496 24.1948C120.267 24.9752 121.809 27.6268 123.122 32.1496C124.295 36.2521 124.693 39.1539 124.315 40.8549C126.663 43.5966 128.95 48.9499 131.178 56.9147C133.705 65.8402 134.132 72.3341 132.461 76.3966C131.924 77.6974 130.353 79.4685 127.747 81.7099C125.041 84.0713 122.366 85.8924 119.72 87.1732L121.063 89.3645C122.137 91.2857 123.102 93.357 123.957 95.5783C126.682 102.743 127.816 110.167 127.359 117.852C127.22 120.293 125.21 122.295 121.331 123.856C117.532 125.357 113.483 125.857 109.186 125.357C107.734 125.156 105.814 123.445 103.427 120.223C100.702 116.481 99.0805 112.599 98.5633 108.576C94.9229 110.698 91.8493 112.128 89.3428 112.869L88.567 114.19C87.8906 115.27 87.0949 116.271 86.1798 117.192C83.2952 120.153 79.8836 121.804 75.9447 122.145C72.0257 122.485 68.9821 122.175 66.8137 121.214C66.1373 120.914 65.5803 120.564 65.1427 120.163L64.7249 119.653L40.8828 120.464L38.436 122.625C36.2477 124.086 33.7213 124.856 30.8566 124.936C26.9377 125.056 23.8542 124.696 21.6063 123.856C18.7814 122.775 16.7722 120.804 15.5786 117.942C13.8479 113.819 12.9328 109.097 12.8333 103.773C12.6941 96.8491 14.2358 91.1856 17.4585 86.783C20.5619 82.5404 24.6102 78.2177 29.6034 73.815C30.9959 72.5943 34.7856 69.4924 40.9724 64.5094C44.1354 61.9878 46.9503 59.5463 49.417 57.1849C51.9236 54.7834 53.4454 53.0624 53.9825 52.0217C54.5594 48.0393 55.3154 43.9968 56.2504 39.8943C58.1402 31.6893 59.9704 27.3067 61.7409 26.7463C63.5114 26.206 66.1174 26.7763 69.559 28.4574C71.2698 29.3179 72.8016 30.2184 74.1543 31.159L76.1834 30.4386C77.9738 29.8982 79.9333 29.438 82.0619 29.0577C88.8654 27.877 96.0866 27.807 103.726 28.8476C104.879 27.6068 107.426 26.4061 111.365 25.2454C115.164 24.1247 117.541 23.7745 118.496 24.1948Z" fill="#7CBEB3"/>
<path d="M123.897 36.1421L124.494 40.855L121.421 36.2621C121.739 34.9213 121.878 33.1102 121.838 30.8288L121.659 27.827C122.574 29.8082 123.32 32.5799 123.897 36.1421Z" fill="#68A198"/>
<path d="M55.564 41.4553C57.1754 34.0108 58.7569 29.7081 60.3086 28.5474C59.9306 32.8701 59.8013 37.1427 59.9207 41.3653C60.0002 43.8468 60.2588 47.6291 60.6965 52.7122C60.9551 55.734 60.6468 58.4157 59.7715 60.7571C58.9956 62.7983 57.9811 64.1892 56.7278 64.9296C55.4944 65.6501 54.4798 65.49 53.6841 64.4493C52.8287 63.3087 52.5403 61.3475 52.8188 58.5658C53.3758 53.0224 54.2909 47.3189 55.564 41.4553Z" fill="#68A198"/>
<path d="M109.425 117.762C110.957 120.644 112.787 122.445 114.916 123.165L113.782 125.447C110.778 126.047 108.122 125.256 105.814 123.075C103.049 120.414 100.602 115.581 98.4738 108.576C95.0323 110.678 91.2128 112.249 87.0153 113.289C82.8775 114.33 77.9042 114.96 72.0953 115.18C71.1803 115.481 70.5138 116.121 70.0961 117.102C69.6783 118.042 69.6684 118.893 70.0662 119.653L68.3952 121.634L64.8144 119.443C64.9139 118.763 65.4709 116.731 66.4854 113.349C67.4801 110.107 68.1067 107.296 68.3654 104.914C69.1213 97.7897 67.1519 91.3458 62.4571 85.5823C66.6346 89.8049 73.9554 92.4565 84.4192 93.5371C95.5992 94.6778 105.098 93.6572 112.916 90.4753C110.41 92.0963 108.619 94.6178 107.545 98.0399C106.59 101.122 106.302 104.534 106.68 108.276C107.058 111.878 107.973 115.04 109.425 117.762Z" fill="#68A198"/>
<path d="M12.5349 100.531C13.3904 107.556 17.2099 112.068 23.9935 114.07C26.5995 114.83 29.3447 115.11 32.2293 114.91C34.8552 114.73 37.0136 114.21 38.7045 113.349L40.8828 120.734C39.3312 122.255 37.2424 123.445 34.6165 124.306C29.3646 126.027 24.083 125.276 18.7715 122.055C16.2052 120.494 14.3651 116.531 13.2511 110.167C12.893 108.026 12.6543 105.855 12.5349 103.653C12.4355 101.812 12.4355 100.772 12.5349 100.531Z" fill="#68A198"/>
<path d="M76.4221 51.6015C77.198 51.4614 78.0235 51.5915 78.8988 51.9917C75.8949 54.3132 74.3234 57.8753 74.1841 62.6783C74.0449 67.0609 75.0395 71.1735 77.1681 75.0158C72.9905 74.5555 70.0463 73.5949 68.3355 72.134C67.8382 71.6938 67.6293 70.463 67.7089 68.4418C67.7884 66.3405 68.1565 64.1392 68.813 61.8378C70.5238 55.714 73.0602 52.3019 76.4221 51.6015Z" fill="white"/>
<path d="M86.7467 63.0385C87.6817 65.56 88.2586 67.8314 88.4775 69.8526C88.7162 72.014 88.4775 73.4548 87.7613 74.1753C87.2839 74.6556 86.0007 74.9858 83.912 75.1659C81.7834 75.326 79.5354 75.2759 77.1681 75.0158C75.0396 71.1734 74.0449 67.0609 74.1842 62.6783C74.3234 57.8753 75.895 54.3131 78.8989 51.9917C81.8629 53.3726 84.4789 57.0548 86.7467 63.0385Z" fill="#D60040"/>
<path d="M121.689 50.1006C124.176 52.1418 125.658 55.1937 126.135 59.2562C126.434 61.7977 126.314 65.3699 125.777 69.9727C124.902 70.3129 124.057 70.5431 123.241 70.6631C122.405 70.8032 121.779 70.8032 121.361 70.6631C120.187 70.2829 119.6 67.2611 119.6 61.5976C119.581 55.8141 120.277 51.9817 121.689 50.1006Z" fill="#D60040"/>
<path d="M121.689 50.1006C122.047 49.6003 122.425 49.3101 122.823 49.2301C124.753 48.8098 126.623 51.1813 128.433 56.3444C130.204 61.4675 130.552 65.1298 129.477 67.3311C128.98 68.3718 127.747 69.2523 125.777 69.9727C126.314 65.3699 126.434 61.7977 126.135 59.2562C125.658 55.1937 124.176 52.1418 121.689 50.1006Z" fill="white"/>
<path d="M104.173 47.0387C103.596 47.2588 102.094 46.6485 99.6674 45.2076C97.121 43.7267 95.8976 42.516 95.9971 41.5754C96.1363 40.3346 98.1953 38.6236 102.174 36.4422C106.212 34.2409 108.898 33.4304 110.231 34.0108C111.086 34.371 110.639 36.4923 108.888 40.3746C107.117 44.277 105.546 46.4984 104.173 47.0387Z" fill="#006359"/>
<path d="M90.8945 49.6203C90.8348 49.3602 91.1332 48.8699 91.7897 48.1494C92.4661 47.409 93.0728 46.9687 93.6099 46.8286L94.2664 47.7592C94.8234 48.6997 95.3804 50.0206 95.9374 51.7216L95.5495 52.6522C95.1715 53.3326 94.704 53.8029 94.147 54.063L92.7147 52.6822C91.72 51.5815 91.1133 50.5609 90.8945 49.6203Z" fill="#006359"/>
<path d="M113.961 56.1643C114.577 59.7064 114.627 61.6877 114.11 62.1079C113.652 62.4881 112.26 62.3381 109.932 61.6576C107.585 60.9772 106.252 60.3168 105.934 59.6764C106.033 58.1955 106.789 56.3444 108.202 54.123C109.654 51.9017 110.827 50.791 111.723 50.791C112.598 50.791 113.344 52.5821 113.961 56.1643Z" fill="#006359"/>
<path d="M115.751 108.366C115.672 107.225 116.368 105.595 117.84 103.473C119.272 101.392 120.307 100.391 120.943 100.471C121.898 100.571 122.555 102.583 122.913 106.505C123.251 110.447 122.942 112.579 121.988 112.899C120.933 113.259 119.67 113.059 118.198 112.299C116.507 111.398 115.691 110.087 115.751 108.366Z" fill="#006359"/>
<path d="M21.1587 91.4958L26.0823 91.706C28.2904 92.1462 29.5636 92.6365 29.9018 93.1769C30.4588 94.0774 30.0908 95.9786 28.7977 98.8804C27.5245 101.762 26.4503 103.243 25.575 103.323C24.819 103.383 23.2873 102.623 20.9796 101.042C18.6521 99.4607 17.4983 98.36 17.5182 97.7397C17.5381 96.9392 17.926 95.7985 18.682 94.3176C19.5175 92.6566 20.3431 91.716 21.1587 91.4958Z" fill="#006359"/>
<path d="M49.5364 65.7701C50.0536 66.6707 49.2181 69.1722 47.0298 73.2747C44.8416 77.3772 43.1606 79.5586 41.9869 79.8187C40.9127 80.0789 39.162 79.6086 36.7351 78.4079C34.4473 77.3072 32.9255 76.2966 32.1696 75.376C31.9309 75.0758 32.09 74.1953 32.647 72.7344L33.5422 70.6031L37.5407 67.4211C40.2462 65.2798 41.7581 64.1692 42.0764 64.0891L45.8064 64.4193C47.9947 64.7995 49.238 65.2498 49.5364 65.7701Z" fill="#006359"/>
<path d="M79.8239 55.0236C80.4605 55.0236 81.0175 55.654 81.4949 56.9148C81.9724 58.2556 82.2011 59.9266 82.1812 61.9278C82.1414 63.829 81.8828 65.3299 81.4054 66.4306C80.9677 67.4312 80.4306 67.9315 79.794 67.9315C79.1972 67.9315 78.68 67.3912 78.2424 66.3105C77.7649 65.1698 77.5063 63.7289 77.4665 61.9879C77.387 59.8866 77.6058 58.1755 78.123 56.8547C78.5806 55.634 79.1475 55.0236 79.8239 55.0236Z" fill="white"/>
<path d="M120.287 55.684L120.884 52.9823C121.122 52.6621 121.351 52.5121 121.57 52.5321C121.928 52.5521 122.266 52.9423 122.584 53.7028C123.042 54.7234 123.291 56.1643 123.33 58.0254C123.35 59.7865 123.191 61.1573 122.853 62.1379C122.535 63.0185 122.137 63.4587 121.659 63.4587C121.361 63.4587 121.063 63.2386 120.764 62.7983C120.446 62.318 120.227 61.6877 120.108 60.9072C119.869 59.5263 119.929 57.7853 120.287 55.684Z" fill="white"/>
<path d="M107.575 30.2285C102.124 29.1678 96.6038 28.7576 91.0138 28.9977C85.0061 29.2379 79.4857 30.2185 74.4527 31.9395C74.2737 31.9996 74.025 31.7994 73.7067 31.3392C73.3685 30.8789 73.289 30.6087 73.468 30.5287C79.1774 28.5875 85.3642 27.5468 92.0284 27.4068C97.877 27.2667 103.218 27.817 108.052 29.0578C110.519 29.6982 111.693 30.1684 111.574 30.4686L107.575 30.2285Z" fill="#0D131A"/>
<path d="M123.689 38.6036C127.727 44.4871 130.671 51.3113 132.521 59.0761C134.132 65.8402 134.53 71.0734 133.715 74.7757C132.82 78.8782 128.363 83.0807 120.346 87.3833C112.389 91.666 104.7 94.0374 97.2802 94.4977C89.3428 94.978 81.8729 94.3176 74.8705 92.5165C67.868 90.7154 63.3523 88.2839 61.3232 85.222C60.6667 84.2214 60.4578 83.611 60.6965 83.3909C60.9551 83.1708 61.542 83.561 62.4571 84.5616C65.1427 87.5234 69.927 89.7848 76.8101 91.3458C83.3549 92.8267 90.1883 93.347 97.3101 92.9067C104.75 92.4464 112.26 90.095 119.839 85.8524C127.12 81.7699 131.158 77.9076 131.954 74.2653C132.79 70.483 132.442 65.3799 130.91 58.956C129.199 51.7716 126.464 45.3077 122.704 39.5641C121.152 37.1827 120.545 35.8619 120.884 35.6017C121.202 35.3416 122.137 36.3422 123.689 38.6036Z" fill="#0D131A"/>
<path d="M54.5495 52.352C53.2365 54.8335 50.5808 57.7853 46.5822 61.2074C44.195 63.2286 40.1766 66.4306 34.5269 70.8132C29.3746 74.9357 25.3959 78.568 22.591 81.7099C18.7317 86.0325 16.1655 90.2851 14.8923 94.4677C13.3605 99.4907 13.2809 105.134 14.6536 111.398C15.9267 117.302 17.737 120.944 20.0844 122.325C22.6109 123.806 26.0126 124.456 30.2897 124.276C34.706 124.096 37.7596 123.055 39.4505 121.154C42.0565 118.212 43.0711 113.449 42.4942 106.865C41.8974 100.141 39.8683 94.7779 36.4068 90.7754C35.0541 89.1945 34.4772 88.2339 34.6761 87.8937C34.8751 87.5535 35.7205 88.1838 37.2125 89.7848C41.5691 94.4877 43.9961 100.241 44.4934 107.045C44.951 113.509 43.6082 118.512 40.4651 122.055C38.5752 124.196 35.1735 125.397 30.2598 125.657C25.5053 125.917 21.7356 125.226 18.9505 123.585C16.1257 121.924 14.0568 118.002 12.7438 111.818C11.411 105.454 11.5403 99.5708 13.1317 94.1675C14.3452 90.085 16.7424 85.9925 20.3231 81.89C22.9292 78.8882 26.6989 75.376 31.6325 71.3536L43.8668 61.3875C48.2831 57.5651 51.5754 54.053 53.7438 50.851C53.8433 50.711 54.0223 50.8811 54.2809 51.3613C54.5594 51.8617 54.649 52.1919 54.5495 52.352Z" fill="#0D131A"/>
<path d="M61.8603 25.8458C63.0937 25.4455 65.1725 25.8458 68.0968 27.0465C71.041 28.2672 73.458 29.7582 75.3479 31.5192C76.8399 32.9201 77.4168 33.7106 77.0786 33.8907C76.7603 34.0908 75.8452 33.6005 74.3333 32.4198C72.3838 30.9389 70.1259 29.6881 67.5597 28.6675C65.0531 27.6469 63.3722 27.2866 62.5168 27.5868C61.1242 28.0471 59.5129 31.5993 57.6827 38.2433C55.753 45.2676 54.4998 52.6321 53.9229 60.3368C53.7637 62.5582 53.4852 63.5788 53.0873 63.3987C52.6696 63.2186 52.5005 62.168 52.5801 60.2468C52.8387 53.5827 53.8333 46.6084 55.5641 39.324C57.5335 31.079 59.6322 26.5862 61.8603 25.8458Z" fill="#0D131A"/>
<path d="M102.771 28.4274C104.501 27.1066 107.157 25.8458 110.738 24.6451C114.776 23.2842 117.581 22.964 119.153 23.6845C120.704 24.3849 122.117 26.7363 123.39 30.7388C124.564 34.4611 125.22 38.2033 125.36 41.9656C125.36 42.1457 125.111 41.9556 124.614 41.3953C124.096 40.8349 123.838 40.4547 123.838 40.2546C123.718 37.2127 123.022 34.0108 121.749 30.6487C120.535 27.4468 119.411 25.6056 118.377 25.1253C117.402 24.6851 115.174 24.9653 111.693 25.9659C108.172 26.9665 105.665 28.0371 104.173 29.1778C104.034 29.2979 103.726 29.2379 103.248 28.9977C102.791 28.7376 102.631 28.5474 102.771 28.4274Z" fill="#0D131A"/>
<path d="M103.875 46.1982C104.85 46.1782 106.212 44.3071 107.963 40.5848C109.694 36.9225 110.34 34.9814 109.902 34.7612C108.928 34.2609 106.511 34.9914 102.651 36.9526C98.7722 38.9138 96.8227 40.4247 96.8028 41.4853C96.7829 42.1457 97.6383 43.0763 99.369 44.277C101.139 45.4778 102.641 46.1182 103.875 46.1982ZM101.488 36.1421C105.725 33.8407 108.749 32.8601 110.559 33.2003C111.176 33.3203 111.355 34.1408 111.096 35.6618C110.857 37.0626 110.32 38.7036 109.485 40.5848C107.396 45.2676 105.526 47.569 103.875 47.489C102.562 47.4089 100.811 46.6485 98.623 45.2076C96.3353 43.7067 95.1914 42.4359 95.1914 41.3953C95.1914 40.1745 97.2901 38.4235 101.488 36.1421Z" fill="#0D131A"/>
<path d="M95.3406 51.9017C95.4003 51.7416 95.1815 51.0011 94.6841 49.6803C94.1868 48.3395 93.8287 47.6591 93.6099 47.6391C93.4309 47.6191 93.033 47.8892 92.4163 48.4496C91.7996 49.0099 91.4913 49.4302 91.4913 49.7103C91.5112 49.9705 91.9289 50.6509 92.7445 51.7516C93.5602 52.8122 94.0376 53.3426 94.1769 53.3426C94.2962 53.3426 94.5051 53.1424 94.8035 52.7422L95.3406 51.9017ZM95.4003 48.7497C96.017 50.2307 96.3353 51.2413 96.3552 51.7816C96.3751 52.2219 96.0568 52.8222 95.4003 53.5827C94.7239 54.3632 94.2167 54.6734 93.8785 54.5133C93.4806 54.3332 92.7943 53.5927 91.8195 52.2919C90.7652 50.9111 90.2778 49.9605 90.3573 49.4402C90.4369 48.8998 90.9044 48.2194 91.7598 47.3989C92.6152 46.6184 93.2618 46.2382 93.6994 46.2582C94.157 46.2983 94.7239 47.1288 95.4003 48.7497Z" fill="#0D131A"/>
<path d="M111.514 51.6615C110.897 51.6215 109.883 52.7922 108.47 55.1737C107.098 57.5351 106.491 58.946 106.65 59.4062C106.809 59.8265 107.933 60.3368 110.022 60.9372C112.131 61.5375 113.334 61.6976 113.632 61.4175C114.09 60.9772 114 59.2462 113.364 56.2243C112.727 53.2225 112.111 51.7015 111.514 51.6615ZM107.456 54.1831C109.186 51.1812 110.549 49.7303 111.544 49.8304C112.797 49.9505 113.802 52.0317 114.557 56.0742C115.294 60.0967 115.234 62.318 114.378 62.7383C113.642 63.1185 112.021 62.8884 109.515 62.0479C107.048 61.2274 105.695 60.5269 105.456 59.9466C105.078 59.0861 105.745 57.1649 107.456 54.1831Z" fill="#0D131A"/>
<path d="M69.5291 57.6352C71.8566 52.8923 74.3532 50.6709 77.0189 50.9711C80.7787 51.4114 84.0114 54.6033 86.7169 60.547C87.8508 63.0685 88.5968 65.56 88.9549 68.0215C89.3328 70.5831 89.2035 72.6243 88.5669 74.1453C88.2288 74.9858 86.9556 75.5461 84.7474 75.8263C82.7183 76.0664 80.361 76.0464 77.6754 75.7663C74.9699 75.4861 72.6623 74.9958 70.7525 74.2954C68.6439 73.5549 67.5 72.7044 67.321 71.7438C66.4258 67.181 67.1618 62.4781 69.5291 57.6352ZM83.5539 58.0554C81.4651 54.4933 79.237 52.5821 76.8697 52.3219C75.9347 52.2219 74.9202 52.7422 73.8261 53.8829C72.1749 55.6039 70.8421 58.0855 69.8275 61.3274C68.7533 64.8496 68.435 68.2216 68.8726 71.4436C69.0318 72.6844 72.0058 73.6249 77.7948 74.2653C83.5837 74.9257 86.7268 74.6756 87.2242 73.5149C87.7414 72.2541 87.6519 70.0528 86.9556 66.9108C86.2195 63.6288 85.0856 60.677 83.5539 58.0554Z" fill="#0D131A"/>
<path d="M127.508 55.654C126.016 51.9317 124.514 50.0706 123.002 50.0706C121.669 50.0706 120.854 53.2425 120.555 59.5864C120.257 65.8902 120.635 69.3524 121.689 69.9727C122.385 70.373 123.698 70.1528 125.628 69.3123C127.558 68.4718 128.602 67.6813 128.761 66.9409C129.537 63.3987 129.119 59.6364 127.508 55.654ZM119.153 59.0761C119.491 52.1518 120.774 48.6897 123.002 48.6897C124.932 48.6897 126.802 50.761 128.612 54.9035C130.502 59.2662 131.029 63.3387 130.194 67.121C129.895 68.4018 128.423 69.5425 125.777 70.5431C123.211 71.5237 121.58 71.7138 120.884 71.1134C120.227 70.5731 119.74 69.0922 119.421 66.6707C119.103 64.3493 119.014 61.8178 119.153 59.0761Z" fill="#0D131A"/>
<path d="M41.7482 63.5188L46.9702 63.849C48.9993 64.2092 50.163 64.6795 50.4614 65.2599C50.9985 66.3605 50.0238 69.1823 47.5371 73.725C45.0505 78.3078 43.1507 80.5992 41.8377 80.5992C40.5844 80.5992 38.5354 79.9689 35.6907 78.7081C32.6868 77.3873 31.1849 76.3066 31.1849 75.4661C31.1849 74.9858 31.4037 74.2654 31.8413 73.3048L33.2737 70.4831C33.3731 70.323 33.6417 70.2229 34.0793 70.1829C34.5369 70.1629 34.7159 70.2329 34.6164 70.393C34.0793 71.3936 33.6516 72.3642 33.3333 73.3048C33.0548 74.1253 32.9156 74.7156 32.9156 75.0759C32.9951 75.6162 34.2783 76.4467 36.7649 77.5674C39.1919 78.6681 40.8729 79.2284 41.8079 79.2484C42.6832 78.9682 44.1155 76.927 46.1048 73.1247C48.0941 69.3223 48.9495 67.0009 48.671 66.1604C48.5119 65.8202 47.6565 65.5 46.1048 65.1998L41.4796 64.8696C41.2807 64.8896 41.231 64.6695 41.3304 64.2092C41.4299 63.769 41.5691 63.5388 41.7482 63.5188Z" fill="#0D131A"/>
<path d="M21.4272 92.0361C20.8105 92.3363 20.1043 93.1668 19.3086 94.5277C18.5129 95.8685 18.1448 96.7991 18.2045 97.3194C18.2841 97.8597 19.3384 98.8503 21.3675 100.291C23.3966 101.732 24.7096 102.412 25.3064 102.332C25.9032 102.252 26.8282 100.872 28.0815 98.1899C29.3348 95.5083 29.8023 93.9973 29.484 93.6571C29.1259 93.2969 27.8229 92.8767 25.575 92.3964C23.2872 91.9161 21.9047 91.796 21.4272 92.0361ZM18.115 93.7472C19.05 92.1862 19.9352 91.1856 20.7707 90.7454L25.933 90.9855C28.7977 91.5258 30.4687 92.1762 30.9461 92.9367C31.3838 93.6371 30.8865 95.5983 29.4541 98.8203C28.0218 102.022 26.8481 103.793 25.933 104.134C25.2368 104.414 23.5956 103.643 21.0095 101.822C18.3835 99.981 17.001 98.5401 16.8617 97.4995C16.7622 96.5989 17.18 95.3482 18.115 93.7472Z" fill="#0D131A"/>
<path d="M116.408 108.306V108.336C116.447 109.997 117.253 111.208 118.825 111.968C120.237 112.649 121.192 112.759 121.689 112.299C122.206 111.818 122.386 109.997 122.226 106.835C122.067 103.613 121.6 101.822 120.824 101.462C120.406 101.282 119.561 102.182 118.287 104.164C117.034 106.145 116.408 107.526 116.408 108.306ZM117.273 103.143C118.805 100.681 119.988 99.4607 120.824 99.4807C122.177 99.5007 123.022 101.672 123.36 105.995C123.698 110.237 123.42 112.689 122.525 113.349C121.789 113.91 120.446 113.809 118.496 113.049C116.268 112.168 115.124 110.698 115.065 108.636C115.045 107.396 115.781 105.564 117.273 103.143Z" fill="#0D131A"/>
<path d="M130.373 73.3648C130.353 74.1453 130.243 74.7857 130.044 75.286L129.448 76.2766C128.473 77.4373 126.145 78.8982 122.465 80.6593C118.665 82.4804 115.373 83.6711 112.588 84.2314C107.515 85.2721 99.7271 85.3621 89.2234 84.5016C78.7198 83.6611 72.0854 82.4003 69.3202 80.7193C68.8627 80.4191 68.4449 79.9288 68.067 79.2484C67.7288 78.6681 67.4801 78.0277 67.321 77.3272C67.0226 76.0665 67.0027 75.356 67.2613 75.1959C67.5199 75.0358 67.9277 75.6162 68.4847 76.937C68.8229 77.7175 69.181 78.3178 69.559 78.7381L70.7525 79.6386C72.9806 80.8594 78.9386 81.94 88.6266 82.8806C99.1104 83.9012 107.008 83.8712 112.319 82.7906C114.707 82.2903 117.541 81.3197 120.824 79.8788C123.868 78.538 126.145 77.3172 127.657 76.2166C128.214 75.7963 128.622 75.366 128.881 74.9258C129.159 74.4655 129.338 73.9051 129.418 73.2447C129.557 72.044 129.756 71.4837 130.015 71.5637C130.273 71.6638 130.393 72.2641 130.373 73.3648Z" fill="#0D131A"/>
<path d="M85.1354 48.7198C85.8316 49.3601 86.508 50.1406 87.1645 51.0612C87.8608 52.0218 88.3581 52.8923 88.6565 53.6728C89.0941 54.7935 89.114 55.4238 88.7162 55.5639C88.2984 55.684 87.8309 55.2437 87.3137 54.2431C86.4583 52.5421 85.4139 51.0011 84.1805 49.6203C83.0267 48.2795 82.5692 47.499 82.8079 47.2789C83.0665 47.0587 83.8423 47.539 85.1354 48.7198Z" fill="#0D131A"/>
<path d="M118.765 48.9299C118.387 50.0305 118.148 51.2113 118.049 52.472C117.969 53.5727 117.721 54.113 117.303 54.093C116.885 54.093 116.706 53.5527 116.766 52.472C116.825 51.1512 117.164 49.8504 117.78 48.5696C118.337 47.429 118.745 46.8886 119.004 46.9487C119.242 47.0287 119.163 47.6891 118.765 48.9299Z" fill="#0D131A"/>
<path d="M105.665 80.3891C105.228 80.169 104.879 79.8888 104.621 79.5486C104.362 79.2284 104.273 78.9982 104.352 78.8582L105.277 78.8882C105.854 79.0082 106.282 79.1984 106.56 79.4585C106.918 79.8187 106.988 80.1289 106.769 80.3891C106.55 80.6493 106.182 80.6493 105.665 80.3891Z" fill="#0D131A"/>
<path d="M115.841 78.8882C115.423 79.4085 115.045 79.5886 114.707 79.4285C114.369 79.2684 114.349 78.9382 114.647 78.4379C114.866 78.0777 115.214 77.7575 115.691 77.4773C116.129 77.1971 116.408 77.1071 116.527 77.2071C116.607 77.2872 116.587 77.4973 116.467 77.8375L115.841 78.8882Z" fill="#0D131A"/>
<path d="M79.9731 52.1418C80.1521 52.2019 80.2317 52.4921 80.2118 53.0124C80.1919 53.5327 80.1024 53.7428 79.9433 53.6428C78.9287 53.0024 77.9738 53.4927 77.0786 55.1137C76.2431 56.5946 75.6662 58.6458 75.3479 61.2674C75.0097 63.9691 75.0495 66.4906 75.4673 68.832C75.9646 71.4937 76.8896 73.3948 78.2424 74.5355C78.4015 74.6556 78.3021 74.8357 77.944 75.0758C77.5859 75.296 77.3273 75.346 77.1681 75.2259C75.5369 74.0052 74.4129 71.984 73.7962 69.1622C73.2591 66.6207 73.1994 63.899 73.6172 60.9972C74.035 58.1355 74.8009 55.8541 75.9149 54.1531C77.1284 52.332 78.4811 51.6615 79.9731 52.1418Z" fill="#0D131A"/>
<path d="M121.182 50.3407C121.878 49.8004 122.684 50.0305 123.599 51.0311C124.514 52.0117 125.3 53.4726 125.956 55.4138C127.588 60.2768 127.657 65.0597 126.165 69.7626C126.106 69.9427 125.877 70.0728 125.479 70.1528C125.081 70.2129 124.902 70.1528 124.942 69.9727C126.155 66.1704 126.195 61.8578 125.061 57.0348C124.604 55.0936 124.037 53.5627 123.36 52.442C122.684 51.3013 122.067 50.881 121.51 51.1812C121.351 51.2813 121.222 51.1912 121.122 50.9111C121.023 50.6509 121.043 50.4608 121.182 50.3407Z" fill="#0D131A"/>
<path d="M118.974 87.6235C118.874 87.4634 119.083 87.2232 119.6 86.903C120.098 86.5628 120.386 86.4728 120.466 86.6329C126.115 95.8185 128.632 106.535 128.015 118.783C127.956 119.923 127.09 121.104 125.419 122.325C123.828 123.485 121.858 124.456 119.511 125.236C113.821 127.118 109.544 127.048 106.68 125.026C104.79 123.686 102.83 121.124 100.801 117.342C98.8518 113.719 97.8571 110.968 97.8173 109.087C97.8173 108.906 98.0958 108.706 98.6528 108.486L99.4585 108.396C99.4983 110.257 100.423 112.889 102.234 116.291C104.163 119.913 106.103 122.415 108.052 123.796C110.539 125.537 114.289 125.587 119.302 123.946C121.331 123.285 123.042 122.465 124.434 121.484C125.887 120.484 126.633 119.563 126.672 118.722C127.249 107.275 124.683 96.9092 118.974 87.6235Z" fill="#0D131A"/>
<path d="M102.293 106.655C97.1409 110.718 90.9939 113.469 83.8523 114.91C77.2278 116.231 71.3096 116.161 66.0975 114.7C65.9185 114.64 65.8887 114.33 66.008 113.769C66.1075 113.229 66.2467 112.979 66.4258 113.019C71.5383 114.46 77.2577 114.55 83.5837 113.289C90.0092 112.008 95.8379 109.577 101.07 105.995C103.059 104.634 104.163 104.094 104.382 104.374C104.581 104.634 103.885 105.394 102.293 106.655Z" fill="#0D131A"/>
<path d="M88.3581 112.719C88.4575 112.559 88.9151 112.419 89.7307 112.299L90.8049 112.389C89.2533 114.95 87.3336 117.182 85.0458 119.083C82.4199 121.264 79.8437 122.515 77.3173 122.835L68.3653 122.565C66.0179 121.985 64.6354 121.104 64.2176 119.923C64.1579 119.743 64.3071 119.443 64.6652 119.023C65.0034 118.582 65.2023 118.452 65.262 118.632C65.6599 119.753 66.8833 120.594 68.9323 121.154C71.1603 121.774 73.8957 121.884 77.1383 121.484C79.0281 121.244 81.0274 120.293 83.1361 118.632C85.2249 116.991 86.9655 115.02 88.3581 112.719Z" fill="#0D131A"/>
<path d="M18.9207 14.4088C19.0798 14.2887 19.4677 14.2887 20.0844 14.4088C21.0393 14.5889 21.8748 15.0192 22.591 15.6996C22.7501 15.8196 22.7601 16.0098 22.6208 16.2699C22.5015 16.5101 22.3622 16.5701 22.2031 16.45C21.7853 16.0898 21.3775 15.8497 20.9796 15.7296L20.4127 15.6996L20.532 16.6602L20.7111 18.4613C20.7708 21.1829 19.8855 24.7451 18.0553 29.1478C16.623 32.6499 14.7829 36.2721 12.5349 40.0144C5.45295 51.8416 3.89132 62.0479 7.85008 70.6331C9.34208 73.8751 11.4806 76.5267 14.2657 78.588C16.7324 80.3891 19.0997 81.3697 21.3675 81.5298C21.5466 81.5498 21.5167 81.7799 21.278 82.2202C21.0592 82.6805 20.8503 82.9006 20.6514 82.8806C18.0056 82.7005 15.3598 81.6498 12.714 79.7287C9.76978 77.5674 7.53179 74.7656 6.00001 71.3235C2.02136 62.3981 3.74213 51.7616 11.1623 39.4141C14.6635 33.5705 17.0408 28.7676 18.294 25.0053C19.6269 21.0228 19.8457 17.7908 18.9505 15.3093C18.7715 14.849 18.7615 14.5489 18.9207 14.4088Z" fill="#0D131A"/>
<path d="M34.3777 13.3581C34.517 13.4982 34.517 13.7184 34.3777 14.0185C34.2385 14.3387 34.0992 14.4288 33.96 14.2887C32.468 12.7278 30.5284 11.477 28.1412 10.5364C25.8933 9.6759 23.8741 9.29566 22.0837 9.39572C21.2482 9.45576 20.8006 9.56583 20.7409 9.72593C20.6812 9.86601 20.8802 10.2963 21.3377 11.0167C23.5061 14.4588 23.5658 19.5419 21.5168 26.266C20.4027 29.8682 18.6621 34.351 16.2948 39.7142C12.7936 48.9799 12.5151 57.2449 15.4593 64.5094C16.6727 67.5112 18.3537 70.0528 20.5022 72.134C22.4915 74.0752 24.64 75.386 26.9476 76.0664C27.1068 76.1065 26.9874 76.3066 26.5895 76.6668C26.1917 77.007 25.9032 77.1571 25.7242 77.1171C19.6169 75.316 15.4294 70.7332 13.1616 63.3687C10.7943 55.744 11.3712 47.6191 14.8923 38.9938L17.5182 33.0201C18.7715 30.0984 19.7164 27.5468 20.353 25.3655C22.3025 18.8015 22.0738 13.9685 19.6667 10.8666C18.8511 9.80597 18.4731 9.12556 18.5328 8.82538C18.5924 8.48517 19.1892 8.24502 20.3232 8.10494C22.4517 7.82477 24.8389 8.15497 27.4847 9.09554C30.2897 10.0962 32.5873 11.517 34.3777 13.3581Z" fill="#0D131A"/>
<path d="M32.2889 7.5646L33.393 8.46515C33.5124 8.60524 33.4825 8.89541 33.3035 9.33568C33.1245 9.75594 32.9753 9.89602 32.8559 9.75594L32.2293 9.00548C31.8712 8.64526 31.6026 8.50518 31.4236 8.58522C31.2644 8.66527 31.2048 8.92543 31.2446 9.3657L31.5131 11.0767C31.5529 11.2368 31.3937 11.3169 31.0357 11.3169C30.6776 11.2969 30.4886 11.1968 30.4687 11.0167L30.1703 9.15557C30.0907 8.13495 30.2499 7.46454 30.6478 7.14434C30.9859 6.88419 31.533 7.02427 32.2889 7.5646Z" fill="#0D131A"/>
<path d="M78.0633 16.0298C82.3404 19.4919 84.5883 23.6744 84.8071 28.5774C84.827 28.7776 84.5684 28.9277 84.0313 29.0277C83.4942 29.1478 83.2256 29.1078 83.2256 28.9076C83.0267 24.4249 81.0175 20.5525 77.198 17.2906C72.6026 13.3682 66.1771 11.2569 57.9214 10.9567C50.8593 10.6965 45.8064 9.90604 42.7627 8.58523C40.296 7.52459 38.5155 5.73349 37.4214 3.21195C37.1827 2.67162 36.9838 2.38145 36.8246 2.34142C36.6456 2.28138 36.3571 2.48151 35.9593 2.94179C34.6264 4.42269 33.8406 6.2338 33.6019 8.37511C33.3632 10.5765 33.8207 12.2875 34.9745 13.5082C37.302 15.9097 39.1422 18.7414 40.4949 22.0034C41.3304 24.0247 42.345 27.3967 43.5386 32.1196C44.9908 37.8631 46.5922 42.1357 48.3428 44.9374C49.7552 47.1988 51.8241 49.2401 54.5495 51.0612C54.6689 51.1212 54.5893 51.4114 54.3108 51.9317C54.0522 52.432 53.8433 52.6321 53.6841 52.5321C50.1829 50.2107 47.6664 47.7491 46.1347 45.1476C44.7222 42.7461 43.3595 38.8437 42.0466 33.4404C40.6342 27.5768 39.5798 23.7645 38.8836 22.0034C37.8093 19.2217 36.188 16.7002 34.0197 14.4388C32.468 12.8178 31.9707 10.4264 32.5277 7.26443C33.0648 4.28261 34.149 2.15131 35.7802 0.870523C36.5163 0.290169 37.0335 0.03001 37.3319 0.0900467C37.6303 0.150083 37.9187 0.57034 38.1972 1.35082C39.3908 4.47272 41.1017 6.53398 43.3297 7.53459C45.8363 8.63526 50.7101 9.32569 57.9513 9.60586C66.4656 9.90604 73.1696 12.0473 78.0633 16.0298Z" fill="#0D131A"/>
<path d="M86.7766 17.5307C90.5762 20.8127 92.2174 24.3649 91.7002 28.1872C91.6803 28.3673 91.3819 28.4473 90.805 28.4273C90.2281 28.4073 89.9496 28.3073 89.9694 28.1272C90.4071 24.8451 89.114 21.7633 86.0903 18.8815C82.6089 15.5795 77.7649 13.6983 71.5582 13.2381C71.3593 13.218 70.7824 12.9779 69.8275 12.5176C68.8528 12.0373 68.4549 11.7972 68.6339 11.7972C76.3127 11.7972 82.3603 13.7083 86.7766 17.5307Z" fill="#0D131A"/>
<path d="M39.6594 94.888C40.7336 90.6654 42.2356 87.5034 44.1652 85.4022L66.2766 91.8861C68.2062 99.2906 68.3952 106.345 66.8435 113.049C65.9085 117.031 64.4464 120.584 62.4571 123.706C61.3828 125.407 59.1946 126.527 55.8923 127.068C52.411 127.648 49.059 127.298 45.8363 126.017C43.4888 125.096 41.6487 122.845 40.3159 119.263C39.0825 116.001 38.4161 112.088 38.3166 107.526C38.2171 103.063 38.6647 98.8504 39.6594 94.888Z" fill="#7CBEB3"/>
<path d="M44.4039 103.143C44.5233 101.922 45.9855 100.271 48.7904 98.19C51.5953 96.1087 53.3758 95.3582 54.1317 95.9386C54.9076 96.5189 55.0568 99.6809 54.5793 105.424C54.1019 111.168 53.3758 114.08 52.401 114.16C51.8241 114.2 50.3321 112.599 47.925 109.357C45.4981 106.075 44.3244 104.004 44.4039 103.143Z" fill="#006359"/>
<path d="M39.0924 96.1487C39.1919 104.734 41.1116 111.888 44.8515 117.612C48.4323 123.155 52.9083 126.207 58.2795 126.767C56.0912 127.328 53.7239 127.508 51.1776 127.308C46.0849 126.908 42.6533 124.786 40.8828 120.944C39.1123 117.122 38.2868 111.838 38.4061 105.094L39.0924 96.1487Z" fill="#68A198"/>
<path d="M42.8821 88.7042C40.296 93.1669 39.1223 99.5608 39.361 107.886C39.6196 116.551 41.4299 122.125 44.7919 124.606C47.0796 126.287 50.1431 126.958 53.9825 126.617C57.6827 126.277 60.1296 125.257 61.3232 123.555C64.0286 119.693 65.7991 115.03 66.6346 109.567C67.3906 104.644 67.2911 99.9611 66.3362 95.5183C65.8588 93.297 65.7991 92.1063 66.1572 91.9462C66.5153 91.7861 66.9927 92.7867 67.5895 94.948C68.8229 99.4507 69.0716 104.324 68.3355 109.567C67.5398 115.27 65.7196 120.163 62.8748 124.246C61.4027 126.347 58.3591 127.578 53.7438 127.938C49.2281 128.278 45.8263 127.608 43.5386 125.927C41.8874 124.706 40.5248 122.545 39.4505 119.443C38.4161 116.481 37.7894 113.079 37.5706 109.237C37.0335 100.511 38.4061 93.4571 41.6885 88.0738C42.8423 86.1726 43.638 85.2621 44.0757 85.3421C44.5332 85.4022 44.1354 86.5228 42.8821 88.7042Z" fill="#0D131A"/>
<path d="M45.1201 102.843C45.0803 103.543 46.1048 105.504 48.1936 108.726C50.3222 112.008 51.6849 113.609 52.2817 113.529C52.9381 113.429 53.4753 110.718 53.893 105.394C54.3108 100.051 54.2113 97.1593 53.5946 96.7191C53.0177 96.3188 51.466 97.0693 48.9396 98.9705C46.4331 100.872 45.1599 102.162 45.1201 102.843ZM43.7475 102.543C43.8071 101.082 45.4682 99.2406 48.7307 97.0193C51.9335 94.8579 53.8532 94.0775 54.4898 94.6778C55.5442 95.6985 55.8426 99.1706 55.385 105.094C54.9076 111.018 54.0621 114.33 52.8486 115.03C52.0131 115.531 50.2724 113.95 47.6266 110.287C44.9808 106.645 43.6878 104.064 43.7475 102.543Z" fill="#0D131A"/>
<path d="M21.2482 123.766C21.1487 123.465 21.5267 122.955 22.3821 122.235C23.2574 121.514 23.9139 121.184 24.3515 121.244C25.1473 121.344 25.6943 122.215 25.9927 123.856C26.2712 125.377 26.2911 126.247 26.0524 126.467C25.7739 126.727 24.9981 126.567 23.7249 125.987C22.3523 125.367 21.5267 124.626 21.2482 123.766Z" fill="white"/>
<path d="M30.1405 126.017C28.748 125.376 28.0517 124.736 28.0517 124.096C28.0517 123.535 28.4595 122.855 29.2751 122.054C30.0709 121.254 30.6776 120.954 31.0954 121.154C31.7518 121.474 32.289 122.415 32.7067 123.976C33.1046 125.477 33.1245 126.347 32.7664 126.587C32.3884 126.847 31.5131 126.657 30.1405 126.017Z" fill="white"/>
<path d="M34.8253 124.186C34.6861 123.145 35.0641 122.185 35.9593 121.304L37.3617 120.283C38.0978 120.604 38.6747 121.564 39.0924 123.165C39.4704 124.606 39.5599 125.447 39.361 125.687L37.0037 125.627C35.6111 125.287 34.885 124.806 34.8253 124.186Z" fill="white"/>
<path d="M46.5524 126.707C46.5126 126.187 46.6917 125.627 47.0895 125.026C47.567 124.306 48.1737 123.956 48.9098 123.976C49.6458 123.996 50.2128 124.276 50.6106 124.816C50.9289 125.317 51.0682 125.927 51.0284 126.647C50.9886 127.308 50.7598 128.048 50.3421 128.869C49.9442 129.689 49.6259 130.099 49.3872 130.099C49.1286 130.099 48.6114 129.669 47.8355 128.809C47.0199 127.908 46.5922 127.208 46.5524 126.707Z" fill="white"/>
<path d="M52.4905 127.368C52.4309 126.387 52.6994 125.577 53.2962 124.936C53.7737 124.396 54.2511 124.126 54.7285 124.126C55.0866 124.126 55.5044 124.396 55.9818 124.936C56.4592 125.497 56.7576 126.057 56.877 126.617C56.9566 126.977 56.8671 127.598 56.6084 128.478C56.3498 129.419 56.0415 129.979 55.6834 130.159C55.3253 130.36 54.7285 130.139 53.893 129.499C52.9978 128.839 52.5303 128.128 52.4905 127.368Z" fill="white"/>
<path d="M58.369 127.188C57.812 126.587 57.8617 125.677 58.5182 124.456C59.1747 123.235 59.8212 122.715 60.4578 122.895C61.0546 123.095 61.6315 123.936 62.1885 125.417C62.7057 126.837 62.835 127.748 62.5764 128.148C62.3377 128.508 61.721 128.588 60.7263 128.388C59.7118 128.168 58.926 127.768 58.369 127.188Z" fill="white"/>
<path d="M68.5146 121.724C68.435 121.304 68.8229 120.784 69.6783 120.163C70.5138 119.563 71.1206 119.343 71.4985 119.503C72.155 119.803 72.5827 120.644 72.7817 122.024C72.9806 123.365 72.901 124.116 72.5429 124.276C72.1849 124.436 71.4787 124.246 70.4243 123.706C69.2904 123.105 68.6538 122.445 68.5146 121.724Z" fill="white"/>
<path d="M76.6012 123.766C75.3877 123.345 74.6815 122.865 74.4826 122.325C74.3035 121.864 74.6119 121.204 75.4076 120.343C76.2033 119.503 76.7802 119.163 77.1383 119.323C77.8346 119.623 78.322 120.394 78.6005 121.634C78.8392 122.715 78.8591 123.455 78.6601 123.856L76.6012 123.766Z" fill="white"/>
<path d="M79.8537 121.274C79.615 120.794 79.9532 120.103 80.8683 119.203C81.7635 118.322 82.41 117.962 82.8079 118.122C83.2654 118.322 83.713 119.053 84.1507 120.313C84.5684 121.554 84.6778 122.315 84.4789 122.595L82.2111 122.535C80.8981 122.215 80.1123 121.794 79.8537 121.274Z" fill="white"/>
<path d="M113.692 125.897C113.414 125.617 113.632 124.896 114.349 123.736C115.065 122.555 115.672 121.974 116.169 121.994C116.825 122.034 117.561 122.755 118.377 124.156C119.153 125.477 119.451 126.257 119.272 126.497C119.053 126.777 118.208 126.867 116.736 126.767C115.204 126.667 114.189 126.377 113.692 125.897Z" fill="white"/>
<path d="M120.197 124.246C119.919 123.946 120.098 123.195 120.734 121.995C121.351 120.794 121.888 120.213 122.346 120.253C122.783 120.293 123.4 120.994 124.196 122.355C124.952 123.696 125.26 124.516 125.121 124.816C124.942 125.116 124.216 125.227 122.943 125.146C121.59 125.066 120.675 124.766 120.197 124.246Z" fill="white"/>
<path d="M125.18 121.484C124.862 121.084 124.962 120.323 125.479 119.203C125.976 118.122 126.374 117.602 126.672 117.642C127.19 117.702 127.826 118.362 128.582 119.623C129.318 120.864 129.597 121.644 129.418 121.964C129.278 122.305 128.652 122.435 127.538 122.355C126.364 122.275 125.578 121.984 125.18 121.484Z" fill="white"/>
<path d="M22.5313 122.055L23.8443 123.706C24.7196 124.926 25.2069 125.877 25.3064 126.557L23.2176 125.477C21.845 124.696 21.1985 124.136 21.278 123.796C21.3576 123.455 21.5963 123.065 21.9942 122.625L22.5313 122.055Z" fill="#DBDCDC"/>
<path d="M29.2453 122.175L30.3792 123.585C31.1749 124.706 31.7021 125.717 31.9607 126.617C29.5138 125.757 28.2605 124.906 28.2009 124.066C28.1611 123.545 28.3202 123.075 28.6783 122.655L29.2453 122.175Z" fill="#DBDCDC"/>
<path d="M38.615 125.897C37.3418 125.617 36.4267 125.337 35.8697 125.056C35.2331 124.756 34.8751 124.386 34.7955 123.946C34.7159 123.565 34.7955 123.125 35.0342 122.625L35.4221 121.995C35.9593 122.255 36.6157 122.895 37.3916 123.916C38.048 124.796 38.4559 125.457 38.615 125.897Z" fill="#DBDCDC"/>
<path d="M47.746 124.606L48.0444 126.437C48.303 127.818 48.6213 128.899 48.9993 129.679L47.8654 128.689C47.1293 127.868 46.7812 127.028 46.821 126.167C46.8607 125.567 47.0099 125.126 47.2686 124.846C47.4675 124.626 47.6266 124.546 47.746 124.606Z" fill="#DBDCDC"/>
<path d="M53.1172 125.567L54.2511 127.428L55.7431 130.19C55.1861 130.009 54.6291 129.749 54.0721 129.409C52.958 128.729 52.4408 127.998 52.5204 127.218C52.6 126.457 52.7193 125.957 52.8785 125.717L53.1172 125.567Z" fill="#DBDCDC"/>
<path d="M58.5182 124.486L59.9207 125.837C60.9153 126.857 61.5221 127.708 61.7409 128.388L59.8908 127.788C58.6574 127.308 58.0607 126.837 58.1004 126.377L58.3392 125.026L58.5182 124.486Z" fill="#DBDCDC"/>
<path d="M69.4993 120.373C69.6783 120.494 70.0563 120.944 70.6332 121.724C71.3493 122.705 71.7472 123.495 71.8268 124.096L69.6783 123.075C69.1213 122.735 68.8329 122.305 68.813 121.784C68.7931 121.404 68.9025 121.054 69.1412 120.734L69.4993 120.373Z" fill="#DBDCDC"/>
<path d="M75.0793 120.554L76.064 121.244C76.82 121.944 77.4765 122.865 78.0335 124.006L76.4221 123.555C75.328 123.155 74.7213 122.695 74.6019 122.175C74.4825 121.654 74.5223 121.234 74.7213 120.914L75.0793 120.554Z" fill="#DBDCDC"/>
<path d="M80.6892 119.353L81.9127 120.253C82.788 121.034 83.3848 121.844 83.7031 122.685L82.0022 122.445C80.8086 122.145 80.1024 121.694 79.8836 121.094C79.7642 120.814 79.8139 120.464 80.0328 120.043C80.2317 119.643 80.4505 119.413 80.6892 119.353Z" fill="#DBDCDC"/>
<path d="M114.468 123.585C116.139 124.386 117.482 125.387 118.496 126.587L116.258 126.617C114.766 126.537 113.991 126.237 113.931 125.717C113.871 125.196 113.941 124.686 114.14 124.186L114.468 123.585Z" fill="#DBDCDC"/>
<path d="M120.705 122.295C121.043 122.395 121.61 122.695 122.405 123.195C123.48 123.856 124.146 124.486 124.405 125.086L122.316 124.996C120.903 124.836 120.187 124.526 120.167 124.066C120.128 123.625 120.207 123.195 120.406 122.775L120.705 122.295Z" fill="#DBDCDC"/>
<path d="M125.419 119.353L126.732 120.163C127.707 120.844 128.383 121.564 128.761 122.325L127.21 122.205C126.135 122.044 125.469 121.774 125.21 121.394C124.952 121.014 124.912 120.554 125.091 120.013L125.419 119.353Z" fill="#DBDCDC"/>
<path d="M113.125 126.077C112.966 125.497 113.284 124.566 114.08 123.285C114.876 121.985 115.562 121.324 116.139 121.304C116.716 121.284 117.522 122.045 118.556 123.585C119.571 125.086 120.008 126.107 119.869 126.647C119.75 127.128 118.636 127.278 116.527 127.098C114.418 126.918 113.284 126.577 113.125 126.077ZM115.065 123.736C114.567 124.536 114.369 125.116 114.468 125.477C114.667 125.757 115.373 125.987 116.587 126.167C117.76 126.347 118.397 126.337 118.496 126.137C118.596 125.917 118.327 125.277 117.691 124.216C117.014 123.135 116.487 122.585 116.109 122.565C115.89 122.545 115.542 122.935 115.065 123.736Z" fill="#0D131A"/>
<path d="M124.494 124.576C124.614 124.396 124.355 123.756 123.718 122.655C123.102 121.554 122.634 120.974 122.316 120.914C122.077 120.894 121.739 121.314 121.301 122.175C120.844 123.035 120.655 123.635 120.734 123.976C120.794 124.276 121.421 124.496 122.614 124.636L124.494 124.576ZM122.465 119.563C123.102 119.643 123.858 120.534 124.733 122.235C125.568 123.856 125.897 124.856 125.718 125.236C125.539 125.637 124.594 125.757 122.883 125.597C121.132 125.417 120.078 125.076 119.72 124.576C119.401 124.136 119.61 123.185 120.346 121.724C121.082 120.203 121.789 119.483 122.465 119.563Z" fill="#0D131A"/>
<path d="M125.867 119.533C125.568 120.213 125.509 120.774 125.688 121.214C125.767 121.454 126.295 121.644 127.269 121.784L128.851 121.694C128.97 121.494 128.761 120.914 128.224 119.953C127.687 118.933 127.22 118.432 126.822 118.452C126.483 118.492 126.165 118.853 125.867 119.533ZM125.21 118.783C125.827 117.642 126.354 117.071 126.792 117.071C127.528 117.071 128.304 117.902 129.119 119.563C129.915 121.164 130.194 122.165 129.955 122.565L127.299 122.655C125.668 122.455 124.783 122.175 124.643 121.814C124.345 121.034 124.534 120.023 125.21 118.783Z" fill="#0D131A"/>
<path d="M55.6834 125.356C55.3452 124.956 55.017 124.776 54.6987 124.816C54.2412 124.836 53.8333 125.126 53.4753 125.687C53.1172 126.227 52.968 126.747 53.0277 127.248C53.0873 127.708 53.4753 128.228 54.1914 128.809C54.8877 129.349 55.3552 129.569 55.5939 129.469C55.753 129.409 55.9221 129.119 56.1012 128.598C56.3399 127.998 56.4195 127.438 56.3399 126.917C56.2802 126.297 56.0614 125.777 55.6834 125.356ZM52.5801 124.966C53.2564 123.966 53.9925 123.495 54.7882 123.555C55.3651 123.595 55.8823 123.896 56.3399 124.456C56.7974 125.016 57.0859 125.707 57.2052 126.527C57.3445 127.328 57.2848 128.198 57.0262 129.139C56.7676 130.059 56.4493 130.59 56.0713 130.73C55.5939 130.91 54.828 130.65 53.7737 129.949C52.6397 129.169 51.9932 128.318 51.8341 127.398C51.7147 126.697 51.9634 125.887 52.5801 124.966Z" fill="#0D131A"/>
<path d="M49.984 125.296C49.7254 124.936 49.4369 124.736 49.1187 124.696C48.7407 124.656 48.3428 124.816 47.9251 125.176C47.4874 125.537 47.2686 125.927 47.2686 126.347C47.2885 126.867 47.5769 127.488 48.1339 128.208C48.6313 128.889 48.9993 129.229 49.238 129.229C49.4568 129.209 49.6956 128.919 49.9542 128.358C50.2327 127.798 50.3819 127.238 50.4018 126.677C50.4217 126.157 50.2824 125.697 49.984 125.296ZM46.9105 124.306C47.6466 123.645 48.4124 123.365 49.2082 123.465C49.8647 123.545 50.4316 123.906 50.909 124.546C51.3666 125.186 51.5755 125.897 51.5357 126.677C51.5158 127.318 51.2671 128.138 50.7897 129.139C50.2725 130.179 49.8249 130.72 49.4469 130.76C49.0092 130.82 48.3229 130.31 47.3879 129.229C46.3933 128.108 45.8761 127.158 45.8363 126.377C45.7965 125.637 46.1546 124.946 46.9105 124.306Z" fill="#0D131A"/>
<path d="M61.4724 124.696C61.0148 124.056 60.597 123.736 60.2191 123.736C59.8411 123.696 59.4631 123.976 59.0852 124.576C58.6873 125.196 58.5381 125.777 58.6376 126.317C58.737 126.797 59.294 127.218 60.3086 127.578C61.2834 127.898 61.8503 127.988 62.0095 127.848C62.1487 127.728 62.1786 127.308 62.099 126.587C62.0194 125.807 61.8105 125.176 61.4724 124.696ZM60.428 122.415C61.4027 122.555 62.1686 123.585 62.7256 125.507C63.2429 127.308 63.3423 128.388 63.024 128.749L60.2191 128.568C58.548 128.108 57.6429 127.508 57.5036 126.767C57.3445 125.947 57.5733 125.006 58.19 123.946C58.8663 122.805 59.6123 122.295 60.428 122.415Z" fill="#0D131A"/>
<path d="M39.6296 122.925C40.1269 124.846 40.1766 125.927 39.7788 126.167C39.2615 126.467 38.247 126.407 36.7351 125.987C35.1635 125.547 34.2882 125.016 34.1092 124.396C33.8704 123.655 34.149 122.705 34.9447 121.544C35.7603 120.343 36.5759 119.773 37.3916 119.833C38.3464 119.893 39.0924 120.924 39.6296 122.925ZM35.3624 123.916C35.4221 124.336 35.9692 124.716 37.0036 125.056C37.9983 125.377 38.605 125.437 38.8239 125.236C38.983 125.096 38.8935 124.426 38.5553 123.225C38.1972 121.944 37.7795 121.264 37.302 121.184C36.9042 121.124 36.4665 121.394 35.9891 121.994C35.452 122.635 35.2431 123.275 35.3624 123.916Z" fill="#0D131A"/>
<path d="M28.7678 124.096C28.7678 124.556 29.3149 125.036 30.409 125.537C31.4833 126.017 32.1 126.147 32.2591 125.927C32.4381 125.707 32.3884 125.056 32.1099 123.976C31.8115 122.815 31.4236 122.185 30.9461 122.085C30.4886 121.985 30.0112 122.195 29.5138 122.715C29.0563 123.195 28.8076 123.636 28.7678 124.036V124.096ZM28.738 121.724C29.5934 120.924 30.3493 120.584 31.0058 120.704C32.0005 120.884 32.7166 121.934 33.1543 123.856C33.5721 125.677 33.582 126.757 33.1841 127.098C32.8062 127.458 31.7518 127.258 30.0211 126.497C28.2108 125.737 27.3455 124.876 27.425 123.916C27.4847 123.235 27.9224 122.505 28.738 121.724Z" fill="#0D131A"/>
<path d="M80.4505 120.854C80.5102 121.254 81.0871 121.634 82.1812 121.994C83.2356 122.335 83.8324 122.415 83.9716 122.235C84.1109 122.055 84.0214 121.434 83.7031 120.373C83.3649 119.253 82.9969 118.672 82.599 118.632C82.2608 118.592 81.8033 118.853 81.2264 119.413C80.6495 119.993 80.3909 120.474 80.4505 120.854ZM80.4804 118.843C81.5148 117.842 82.3304 117.442 82.9272 117.642C83.6832 117.922 84.2999 118.873 84.7773 120.494C85.2349 122.035 85.3144 122.945 85.016 123.225C84.7176 123.485 83.7429 123.395 82.0917 122.955C80.4008 122.495 79.4559 121.984 79.2569 121.424C79.0182 120.724 79.426 119.863 80.4804 118.843Z" fill="#0D131A"/>
<path d="M76.6608 123.255C77.5361 123.555 78.0434 123.636 78.1827 123.495C78.3219 123.355 78.2921 122.785 78.0932 121.784C77.8743 120.724 77.566 120.143 77.1681 120.043C76.7702 119.943 76.3028 120.163 75.7656 120.704C75.2285 121.264 75.0097 121.754 75.1092 122.175C75.2285 122.595 75.7457 122.955 76.6608 123.255ZM77.4068 118.933C78.0633 119.093 78.6104 119.963 79.048 121.544C79.4459 123.085 79.4857 124.096 79.1674 124.576C78.9685 124.876 78.0832 124.746 76.5116 124.186C74.8804 123.605 74.0051 122.995 73.8857 122.355C73.7465 121.714 74.1244 120.944 75.0196 120.043C75.9347 119.123 76.7305 118.753 77.4068 118.933Z" fill="#0D131A"/>
<path d="M70.6332 123.195C71.5085 123.676 72.0357 123.856 72.2147 123.736C72.3739 123.635 72.3938 123.055 72.2744 121.994C72.1351 120.874 71.8566 120.243 71.4389 120.103C71.041 119.963 70.5636 120.103 70.0066 120.524C69.4694 120.924 69.2108 121.324 69.2307 121.724C69.2506 122.205 69.7181 122.695 70.6332 123.195ZM71.7671 118.993C72.6026 119.173 73.1 120.163 73.2591 121.964C73.3984 123.666 73.2989 124.636 72.9607 124.876C72.5827 125.116 71.6478 124.836 70.1558 124.036C68.6439 123.195 67.8581 122.465 67.7984 121.844C67.7387 121.264 68.1664 120.604 69.0815 119.863C70.0563 119.103 70.9515 118.813 71.7671 118.993Z" fill="#0D131A"/>
<path d="M23.6055 125.086C24.6599 125.627 25.2666 125.797 25.4258 125.597C25.6048 125.397 25.575 124.766 25.3363 123.706C25.0776 122.605 24.7693 122.005 24.4112 121.904C23.9935 121.764 23.4862 121.924 22.8894 122.385C22.2926 122.845 21.9942 123.295 21.9942 123.736C22.0141 124.076 22.5512 124.526 23.6055 125.086ZM24.6798 120.554C25.5352 120.734 26.1419 121.784 26.5 123.706C26.8382 125.547 26.8283 126.577 26.4702 126.797C25.8535 127.218 24.7395 126.998 23.1281 126.137C21.5366 125.297 20.7111 124.546 20.6514 123.886C20.5718 123.125 21.0393 122.335 22.0539 121.514C23.0485 120.714 23.9238 120.394 24.6798 120.554Z" fill="#0D131A"/>
</svg>
